<svg xmlns="http://www.w3.org/2000/svg" viewBox="0 0 18.34 18"><defs><style>.cls-1{fill:#fff;}</style></defs><title>Asset 1</title><g id="Layer_2" data-name="Layer 2"><g id="Layer_1-2" data-name="Layer 1"><g id="Group_2869" data-name="Group 2869"><path id="Path_815" data-name="Path 815" class="cls-1" d="M17.69,16.72H.65a.64.64,0,0,0-.64.64A.66.66,0,0,0,.65,18H17.7a.64.64,0,0,0,.64-.64.65.65,0,0,0-.65-.64Z"/><path id="Path_816" data-name="Path 816" class="cls-1" d="M0,11.07v3a.63.63,0,0,0,.19.47.62.62,0,0,0,.45.19h3a.64.64,0,0,0,.45-.19L14.54,4.12a.65.65,0,0,0,0-.91l-3-3a.66.66,0,0,0-.92,0L8.55,2.29.2,10.62a.73.73,0,0,0-.19.45ZM11.1,1.55l2.1,2.11L12,4.84l-2.1-2.1Zm-9.79,9.8,2.1,2.09H1.29Z"/></g></g></g></svg>