<svg xmlns="http://www.w3.org/2000/svg" width="18.342" height="18" viewBox="0 0 18.342 18">
  <g id="Group_2869" data-name="Group 2869" transform="translate(-1712.001 -350)">
    <path id="Path_815" data-name="Path 815" d="M1618.3,3320.74h-17.035a.642.642,0,0,0-.64.637.652.652,0,0,0,.64.639h17.052a.642.642,0,0,0,.638-.639.656.656,0,0,0-.654-.637Zm0,0" transform="translate(111.385 -2954.016)" fill="#231f20"/>
    <path id="Path_816" data-name="Path 816" d="M1600.628,3313.228l-.014,3.037a.659.659,0,0,0,.186.468.62.62,0,0,0,.452.186l3.021-.014a.624.624,0,0,0,.452-.187l10.431-10.433a.657.657,0,0,0,0-.918l-2.99-3.021a.659.659,0,0,0-.918,0l-2.086,2.1-8.347,8.33a.693.693,0,0,0-.188.451Zm11.089-9.513,2.1,2.1-1.183,1.183-2.1-2.1Zm-9.795,9.794,2.1,2.087-2.119.015Zm0,0" transform="translate(111.386 -2952.158)" fill="#231f20"/>
  </g>
</svg>
