<svg xmlns="http://www.w3.org/2000/svg" width="39.847" height="36.605" viewBox="0 0 39.847 36.605">
    <defs>
        <style>
            .prefix__cls-2{fill:#000000}
        </style>
    </defs>
    <g id="prefix__Group_3240" data-name="Group 3240" transform="translate(0 -7.8)" style="opacity:.4">
        <path id="prefix__Path_2123" d="M25.4 78.832a8.1 8.1 0 10-13.108-5.47 6.457 6.457 0 00-7.531 10.371A7.955 7.955 0 000 91.01v7.505a2.506 2.506 0 002.5 2.5h26.63a2.9 2.9 0 002.9-2.9v-9.841a10.054 10.054 0 00-6.63-9.442zm-5.036-11.965A5.63 5.63 0 1114.7 72.5a5.653 5.653 0 015.664-5.633zM9.187 75.025A4 4 0 0113.1 79.97a10.117 10.117 0 00-2.829 2.909 4.005 4.005 0 11-1.085-7.855zM2.453 98.516V91.01a5.5 5.5 0 015.49-5.49H9.08a10.009 10.009 0 00-.38 2.754v9.844a2.915 2.915 0 00.035.448H2.5a.054.054 0 01-.047-.05zm27.124-.4a.454.454 0 01-.448.448H11.6a.454.454 0 01-.448-.448v-9.842a7.592 7.592 0 017.583-7.583h3.263a7.592 7.592 0 017.583 7.583z" class="prefix__cls-2" data-name="Path 2123" transform="translate(0 -56.614)"/>
        <path id="prefix__Path_2124" d="M405.049 3.464h-2.255V1.227a1.227 1.227 0 00-2.453 0v2.237h-2.255a1.227 1.227 0 100 2.453h2.255v2.238a1.227 1.227 0 002.453 0V5.918h2.255a1.227 1.227 0 100-2.453z" class="prefix__cls-2" data-name="Path 2124" transform="translate(-366.429 11.987)"/>
    </g>
</svg>
