<svg xmlns="http://www.w3.org/2000/svg" id="prefix__Group_3239" width="37.43" height="37.43" data-name="Group 3239" viewBox="0 0 37.43 37.43">
    <defs>
        <style>
            .prefix__cls-1{fill:#000000}
        </style>
    </defs>
    <g id="prefix__Group_3014" data-name="Group 3014" transform="translate(14.634 26.938)" style="opacity:.6">
        <g id="prefix__Group_3013" data-name="Group 3013">
            <path id="prefix__Path_2120" d="M201.428 368.7a.731.731 0 10.214.517.734.734 0 00-.214-.517z" class="prefix__cls-1" data-name="Path 2120" transform="translate(-200.18 -368.49)"/>
        </g>
    </g>
    <g id="prefix__Group_3016" data-name="Group 3016" style="opacity:.6">
        <g id="prefix__Group_3015" data-name="Group 3015">
            <path id="prefix__Path_2121" d="M32.091 12.594H29.57a4.986 4.986 0 001.471-3.539V.731A.731.731 0 0030.31 0h-5.687a3.588 3.588 0 00-3.584 3.584v5.471a4.986 4.986 0 001.471 3.539h-7.885A4.986 4.986 0 0016.1 9.055V.731A.731.731 0 0015.365 0H9.677a3.588 3.588 0 00-3.583 3.584v5.471a4.986 4.986 0 001.471 3.539h-1.65A5.921 5.921 0 000 18.509v9.16a.731.731 0 00.731.731h11.551a.731.731 0 000-1.462H4.767v-4.72a.731.731 0 00-1.462 0v4.72H1.462v-8.429a4.458 4.458 0 014.453-4.453h2.051l2.4 3.587V22a.731.731 0 001.462 0v-4.337l2.67-3.606h2.65a3.881 3.881 0 013.877 3.877v3a.731.731 0 101.462 0v-3a5.323 5.323 0 00-1.674-3.877h1.954l2.521 3.771a.731.731 0 00.59.325h.018a.731.731 0 00.587-.3l2.814-3.8h2.8a3.881 3.881 0 013.877 3.877v3a.731.731 0 101.462 0v-3a5.345 5.345 0 00-5.345-5.336zM7.556 3.584a2.124 2.124 0 012.121-2.122h4.957v1.776a2.02 2.02 0 01-2.018 2.018h-5.06zm3.57 12.568l-1.4-2.1h2.952zm-.03-3.557a3.543 3.543 0 01-3.54-3.54V6.718h5.06a3.46 3.46 0 002.018-.647v2.984a3.543 3.543 0 01-3.539 3.539zM22.5 3.584a2.124 2.124 0 012.122-2.122h4.957v1.776a2.02 2.02 0 01-2.018 2.018H22.5V3.584zm3.422 12.568l-1.4-2.1h2.952zm.117-3.557a3.543 3.543 0 01-3.539-3.54V6.718h5.06a3.46 3.46 0 002.018-.647v2.984a3.543 3.543 0 01-3.538 3.539z" class="prefix__cls-1" data-name="Path 2121"/>
        </g>
    </g>
    <g id="prefix__Group_3018" data-name="Group 3018" transform="translate(17.984 19.695)" style="opacity:.6">
        <g id="prefix__Group_3017" data-name="Group 3017">
            <path id="prefix__Path_2122" d="M262.77 272.553h-3.4v-1.406a1.746 1.746 0 00-1.744-1.744h-3.807a1.746 1.746 0 00-1.744 1.744v1.406h-3.4a2.678 2.678 0 00-2.675 2.675v9.235a2.678 2.678 0 002.675 2.675h14.1a2.678 2.678 0 002.675-2.675v-9.235a2.678 2.678 0 00-2.68-2.675zm-8.951-1.687h3.807a.282.282 0 01.282.282v1.406h-4.371v-1.406a.282.282 0 01.281-.283zm10.165 13.6a1.214 1.214 0 01-1.213 1.213h-14.1a1.215 1.215 0 01-1.213-1.213v-5.284h6.315v.12a1.946 1.946 0 003.892 0v-.12h6.315zm-8.745-5.164v-.97h.968v.97a.484.484 0 01-.968 0zm8.745-1.582h-6.315v-.12a.731.731 0 00-.731-.731h-2.43a.731.731 0 00-.731.731v.12h-6.315v-2.489a1.215 1.215 0 011.213-1.213h14.1a1.215 1.215 0 011.213 1.213z" class="prefix__cls-1" data-name="Path 2122" transform="translate(-245.999 -269.403)"/>
        </g>
    </g>
</svg>
