<svg xmlns="http://www.w3.org/2000/svg" width="94.92" height="59.37" viewBox="0 0 94.92 59.37">
  <path id="Path_1843" data-name="Path 1843" d="M92.36,30.5H7.64a5.1,5.1,0,0,0-5.1,5.1v39a5.09,5.09,0,0,0,5.1,5.09H92.36a5.1,5.1,0,0,0,5.1-5.09v-39a5.11,5.11,0,0,0-5.1-5.1ZM36.44,55.93h-22V52.55h22Zm50.85,0H77.12V66.1H73.73V55.93H63.56V52.55H73.73V42.38h3.39V52.55H87.29ZM82.2,22a1.69,1.69,0,0,0-1.69-1.68H68.63A1.68,1.68,0,0,0,67,22v5.1H82.2ZM33.05,22a1.69,1.69,0,0,0-1.68-1.68H19.47A1.68,1.68,0,0,0,17.79,22v5.1H33.05Z" transform="translate(-2.54 -20.32)"/>
</svg>
