<svg xmlns="http://www.w3.org/2000/svg" width="78" height="78" viewBox="0 0 78 78">
    <defs>
        <style>
            .cls-1{fill:#0091d9}.cls-2,.cls-3{fill:#fff}.cls-2{stroke:#fff}.cls-4{filter:url(#Rectangle_27)}
        </style>
        <filter id="Rectangle_27" width="78" height="78" x="0" y="0" filterUnits="userSpaceOnUse">
            <feOffset dy="3"/>
            <feGaussianBlur result="blur" stdDeviation="3"/>
            <feFlood flood-opacity=".161"/>
            <feComposite in2="blur" operator="in"/>
            <feComposite in="SourceGraphic"/>
        </filter>
    </defs>
    <g id="User_management" data-name="User management" transform="translate(-75 -314)">
        <g class="cls-4" transform="translate(75 314)">
            <rect id="Rectangle_27-2" width="60" height="60" class="cls-1" data-name="Rectangle 27" rx="8" transform="translate(9 6)"/>
        </g>
        <g id="users" transform="translate(.127 -9.266)">
            <path id="ic_supervisor_account_24px" d="M20.22 15.382a4.191 4.191 0 1 0-4.191-4.191 4.178 4.178 0 0 0 4.191 4.191zm0 3.353c-3.068 0-9.22 1.542-9.22 4.61v3.772h18.44v-3.773c0-3.067-6.152-4.61-9.22-4.61z" class="cls-2" transform="translate(94.284 343.618)"/>
            <path id="ic_supervisor_account_24px-2" d="M7.012 15.058a5.029 5.029 0 1 1 5.029-5.029 5.008 5.008 0 0 1-5.029 5.029zm0 3.353c3.906 0 11.734 1.961 11.734 5.867v4.191H7.012V24.7c0-1.425-.553-3.923-3.973-5.817a20.591 20.591 0 0 1 3.973-.472z" class="cls-3" data-name="ic_supervisor_account_24px" transform="translate(118.371 342.266)"/>
            <path id="ic_supervisor_account_24px-3" d="M13.734 15.058a5.029 5.029 0 1 0-5.029-5.029 5.008 5.008 0 0 0 5.029 5.029zm0 3.353C9.828 18.411 2 20.372 2 24.278v4.191h11.734V24.7c0-1.425.553-3.923 3.973-5.817a20.591 20.591 0 0 0-3.973-.472z" class="cls-3" data-name="ic_supervisor_account_24px" transform="translate(89.873 342.266)"/>
        </g>
    </g>
</svg>
