<svg id="Group_1" data-name="Group 1" xmlns="http://www.w3.org/2000/svg" width="28.091" height="40.03" viewBox="0 0 28.091 40.03">
  <rect id="Rectangle_1809" data-name="Rectangle 1809" width="5.625" height="10.082" rx="0.5" transform="translate(11 9.216)" fill="#fff"/>
  <path id="Rectangle_1810" data-name="Rectangle 1810" d="M1,20.227H27.089a1,1,0,0,1,1,1h0a1,1,0,0,1-1,1H1a1,1,0,0,1-1-1H0A1,1,0,0,1,1,20.227Z" fill="#fff"/>
  <rect id="Rectangle_1811" data-name="Rectangle 1811" width="15.773" height="17.144" rx="2" transform="translate(6 22.886)" fill="#fff"/>
  <g id="Group_2858-2" data-name="Group 2858-2">
    <rect id="Rectangle_1809-2" data-name="Rectangle 1809-2" width="11.629" height="8.289" rx="0.5" transform="translate(8.216 0)" fill="#fff"/>
    <path id="Rectangle_1813" data-name="Rectangle 1813" d="M20.773,2.175h2.536V6.023H20.773Z" fill="#fff"/>
    <path id="Rectangle_1814" data-name="Rectangle 1814" d="M5,2.175H7.536V6.023H5Z" fill="#fff"/>
    <rect id="Rectangle_1815" data-name="Rectangle 1815" width="7.984" height="5.691" rx="0.5" transform="translate(10.039 1.299)" fill="#0091d9"/>
  </g>
  <rect id="Rectangle_1816" data-name="Rectangle 1816" width="1.984" height="5.691" rx="0.5" transform="translate(8 29.299)" fill="#0091d9"/>
  <rect id="Rectangle_1817" data-name="Rectangle 1817" width="1.984" height="5.691" rx="0.5" transform="translate(13 29.299)" fill="#0091d9"/>
  <rect id="Rectangle_1818" data-name="Rectangle 1818" width="1.984" height="5.691" rx="0.5" transform="translate(17 29.299)" fill="#0091d9"/>
  <path id="Path_1842" data-name="Path 1842" d="M10.394,5.45h1.588l.6-.492.3.671L13.661,4.5,14.1,5.629l.463-.671H16.7" fill="none" stroke="#fff" stroke-width="0.2"/>
</svg>
