<svg id="users" xmlns="http://www.w3.org/2000/svg" width="45.244" height="23.969" viewBox="0 0 45.244 23.969">
  <path id="ic_supervisor_account_24px" data-name="ic supervisor account 24px" d="M22.631,11.734A4.191,4.191,0,1,0,18.44,7.543h0A4.179,4.179,0,0,0,22.6,11.734Zm0,3.353c-3.068,0-9.22,1.542-9.22,4.61v3.772h18.44V19.7c0-3.067-6.152-4.61-9.22-4.61Z" fill="#fff" stroke="#fff" stroke-width="1"/>
  <path id="ic_supervisor_account_24px-2" data-name="ic supervisor account 24px-2" d="M33.51,10.058a5.008,5.008,0,1,1,.042,0Zm0,3.353c3.906,0,11.734,1.961,11.734,5.867v4.191H33.51V19.7c0-1.425-.553-3.923-3.973-5.817A20.583,20.583,0,0,1,33.51,13.411Z" fill="#fff"/>
  <path id="ic_supervisor_account_24px-3" data-name="ic supervisor account 24px-3" d="M11.734,10.058a5.008,5.008,0,1,0-.042,0Zm0,3.353C7.828,13.411,0,15.372,0,19.278v4.191H11.734V19.7c0-1.425.553-3.923,3.973-5.817A20.583,20.583,0,0,0,11.734,13.411Z" fill="#fff"/>
</svg>
